<svg viewBox="0 0 100 100" xmlns="http://www.w3.org/2000/svg"><symbol viewBox="0 0 163.81 163.81" id="some-icon-1"><title>1</title> <g class="square-minus-circle"> <g> <path d="M0.5,0.5v162.81h80.763c10.773-37.296,42.759-65.586,82.046-70.967V0.5H0.5z"/> </g> <g> <path fill="none" stroke="#FFFFFF" stroke-miterlimit="10" d="M0.5,0.5v162.81h80.763c10.773-37.296,42.759-65.586,82.046-70.967
			V0.5H0.5z"/> </g> </g> <circle class="green-circle" fill="#8DC63F" stroke="#FFFFFF" stroke-miterlimit="10" cx="62.484" cy="63.309" r="29.752"/> </symbol><symbol viewBox="0 0 503.39 232.712" id="some-icon-hello"><title>hello</title> <polygon class="polygon-5" points="249.811,60 195.425,172.711 312.375,172.711 366.76,60 "/> <polygon class="polygon-4" points="15.912,0 0,32.977 0,112.711 78.476,112.711 132.861,0 "/> <polygon class="polygon-3" points="132.861,30 78.476,142.711 195.425,142.711 249.811,30 "/> <polygon class="polygon-2" points="429.324,232.712 503.39,232.712 503.39,120 483.709,120 "/> <polygon class="polygon-1" points="366.76,90 312.375,202.712 429.324,202.712 483.709,90 "/> </symbol><symbol viewBox="0 0 279.848 417.943" id="some-icon-penis"><title>penis</title> <path d="M268.76,27.492C255.686,8.136,232.378-3.744,209.052,1.071c-6.313,1.303-3.635,10.942,2.658,9.643
	c19.011-3.924,37.577,6.557,48.415,21.826c10.177,14.339,10.968,32.374,8.141,49.233c-1.104,6.584-3.359,14.009-8.889,18.256
	c-5.444,4.183-12.299,3.922-18.707,2.717c-4.655-0.875-10.638-2.675-16.013-5.476c-3.636-8.514-8.385-16.444-15.109-22.098
	c-3.399-2.858-8.229-0.985-8.535,3.536c-0.75,11.048,6.301,19.377,15.396,25.11c1.92,4.949,3.477,10.03,4.974,14.813
	c4.222,13.488,6.938,27.468,8.711,41.477c3.511,27.739,3.218,55.868,1.767,83.739c-0.687,13.176-1.726,26.275-3.492,39.262
	c-35.503-1.029-72.146,7.416-103.89,23.033c-13.517-55.869-14.466-113.959-16.864-171.123c-0.335-7.982-1.14-16.08-1.65-24.181
	c4.077-10.41,4.497-22.32,0.987-32.973c-1.426-4.329-8.699-5.2-9.644,0c-1.848,10.184-1.828,20.43-1.293,30.685
	c-2.102,4.723-5.188,9.037-9.271,12.569c-11.945,10.328-31.172,5.658-44.227,0.144c-14.406-6.085-27.813-16.999-31.675-32.732
	c-3.885-15.832,2.501-37.332,15.211-47.549c5.027-4.041-2.097-11.07-7.071-7.071C3.379,46.453-2.478,70.866,0.943,89.984
	c3.442,19.236,20.656,33.21,37.718,40.416c16.994,7.179,38.767,11.006,54.244-1.478c1.499-1.208,2.893-2.518,4.191-3.904
	c0.868,13.556,1.206,27.152,1.77,40.722c1.248,30.091,2.845,60.192,6.576,90.093c3.692,29.573,9.619,58.868,19.337,87.08
	c4.149,12.045,9.438,23.523,14.458,35.207c3.714,8.64,7.429,17.297,12.198,25.42c3.642,6.2,9.689,15.645,18.118,14.268
	c8.549-1.396,14.775-11.474,19.575-17.785c7.193-9.463,14.751-18.326,20.906-28.566c6.856-11.408,12.234-23.698,16.632-36.244
	c4.782-13.646,8.109-27.756,10.441-42.042c3.318-1.161,3.728-5.96,1.259-8.37c1.341-9.828,2.256-19.716,2.874-29.568
	c1.739-27.713,2.454-55.559,0.102-83.257c-1.469-17.283-4.256-34.495-8.903-51.214c-0.967-3.477-2.006-7.125-3.167-10.812
	c2.628,0.923,5.221,1.663,7.662,2.22c8.36,1.906,16.78,2.015,24.616-1.736c8.725-4.176,13.415-13.632,15.648-22.559
	C282.222,67.792,280.472,44.832,268.76,27.492z M219.524,324.875c-3.918,12.974-9.161,25.474-15.707,37.336
	c-6.1,11.054-13.878,20.479-21.533,30.419c-2.707,3.515-5.354,7.061-8.326,10.359c-1.372,1.521-2.848,3.013-4.533,4.184
	c-0.546,0.378-0.943,0.584-1.492,0.77c0.338-0.135-0.3-0.105-1.038-0.589c-2.966-1.939-5.052-5.932-6.825-8.86
	c-2.721-4.495-5.004-9.262-7.205-14.026c-10.276-22.251-19.456-44.856-25.883-68.536c0.32-0.094,0.645-0.216,0.972-0.38
	c30.111-15.116,65.037-23.168,98.898-22.473C225.056,303.774,222.693,314.383,219.524,324.875z"/> <path d="M178.309,362.331c-0.589-3.833-1.913-7.348-3.417-10.903c-1.062-2.513-4.72-3.036-6.841-1.794
	c-2.574,1.508-2.855,4.33-1.794,6.842c1.154,2.728,1.959,5.59,2.409,8.515c0.415,2.698,3.756,4.149,6.149,3.491
	C177.67,367.696,178.723,365.022,178.309,362.331z"/> </symbol></svg>