<svg viewBox="0 0 100 100" xmlns="http://www.w3.org/2000/svg"><symbol viewBox="0 0 163.81 163.81" id="some-icon-1"><title>1</title> <g class="square-minus-circle"> <g> <path d="M0.5,0.5v162.81h80.763c10.773-37.296,42.759-65.586,82.046-70.967V0.5H0.5z"/> </g> <g> <path fill="none" stroke="#FFFFFF" stroke-miterlimit="10" d="M0.5,0.5v162.81h80.763c10.773-37.296,42.759-65.586,82.046-70.967
			V0.5H0.5z"/> </g> </g> <circle class="green-circle" fill="#8DC63F" stroke="#FFFFFF" stroke-miterlimit="10" cx="62.484" cy="63.309" r="29.752"/> </symbol><symbol viewBox="0 0 503.39 232.712" id="some-icon-hello"><title>hello</title> <polygon class="polygon-5" points="249.811,60 195.425,172.711 312.375,172.711 366.76,60 "/> <polygon class="polygon-4" points="15.912,0 0,32.977 0,112.711 78.476,112.711 132.861,0 "/> <polygon class="polygon-3" points="132.861,30 78.476,142.711 195.425,142.711 249.811,30 "/> <polygon class="polygon-2" points="429.324,232.712 503.39,232.712 503.39,120 483.709,120 "/> <polygon class="polygon-1" points="366.76,90 312.375,202.712 429.324,202.712 483.709,90 "/> </symbol></svg>